<svg clip-rule="evenodd" fill-rule="evenodd" stroke-linejoin="round" stroke-miterlimit="1.41421" viewBox="0 0 550 150" xmlns="http://www.w3.org/2000/svg"><path d="m6.676 90.438v-71.161h24.099l6.654 37.361 6.609-37.361h24.323v71.621h-15.376v-51.659l-8.183 51.659h-14.207l-8.722-51.659v91.752h-15.197v-40.553zm148.638-50.57h-16.051l-.09-4.316c-.03-.809-.374-1.528-1.034-2.158-.659-.629-1.394-.944-2.203-.944-1.049 0-1.941.322-2.675.967-.734.644-1.101 1.476-1.101 2.495 0 2.038 1.483 4.256 4.451 6.654l9.576 7.733c1.559 1.259 2.915 2.54 4.069 3.844s2.068 2.593 2.743 3.867c.674 1.274 1.221 2.428 1.641 3.462.419 1.034.711 2.158.876 3.372s.263 2.128.293 2.742c.03.615.044 1.416.044 2.406 0 2.517-.164 4.803-.494 6.856s-.914 4.031-1.754 5.935c-.839 1.903-1.94 3.492-3.304 4.765-1.364 1.274-3.132 2.286-5.305 3.035-2.173.75-4.699 1.124-7.576 1.124-7.344 0-12.581-1.678-15.714-5.035-3.132-3.357-4.698-8.543-4.698-15.556v-7.014h15.646v6.429c0 4.616 1.259 6.924 3.777 6.924 1.169 0 2.09-.45 2.765-1.349.674-.899 1.011-2.083 1.011-3.552 0-1.918-.262-3.537-.786-4.855-.525-1.319-1.319-2.571-2.383-3.755-1.064-1.183-2.81-2.825-5.238-4.923l-6.699-5.799c-5.395-4.646-8.093-9.892-8.093-15.736 0-6.355 1.626-11.083 4.878-14.185 3.252-3.103 7.726-4.654 13.421-4.654h2.787c1.469 0 3.357.337 5.665 1.012 2.308.674 4.361 1.798 6.16 3.372 1.798 1.573 3.147 3.762 4.046 6.564.899 2.803 1.349 6.227 1.349 10.273zm74.319-6.699h-15.556v13.983h14.926v13.443h-14.926v16.32h16.59v13.983h-32.686v-71.621h31.652zm-36.508-.09h-9.396v57.819h-15.826v-57.819h-9.397v-13.802h34.619zm59.617 57.819h-16.005v-71.621h24.278c2.488 0 4.616.337 6.384 1.011 1.769.675 3.162 1.559 4.182 2.653 1.019 1.094 1.82 2.548 2.405 4.361.584 1.813.967 3.627 1.146 5.44.18 1.814.27 4.009.27 6.587 0 1.349-.022 2.45-.067 3.304-.045.855-.21 1.934-.495 3.238-.285 1.303-.682 2.39-1.191 3.259-.51.869-1.282 1.724-2.316 2.563s-2.285 1.484-3.754 1.933c1.469.27 2.683.772 3.642 1.506.959.735 1.648 1.641 2.068 2.72s.704 2.076.854 2.99.225 1.941.225 3.08c0 11.839-.06 20.831-.18 26.976h-15.466v-27.92c0-1.109-.112-1.993-.337-2.653-.225-.659-.645-1.131-1.259-1.416-.615-.285-1.207-.457-1.776-.517-.57-.06-1.439-.09-2.608-.09zm-138.836 0h-15.287l-1.124-10.79h-8.002l-.99 10.79h-15.376l8.093-71.621h24.773zm-19.738-58.178h-1.438l-2.113 34.349h5.664zm159.518-.18h-.854v13.353h3.957c2.098 0 3.147-2.188 3.147-6.564 0-2.908-.412-4.766-1.237-5.575-.824-.809-2.495-1.214-5.013-1.214z" fill="#e20619"/><path d="m527.223 130.991v-40.093-51.659l-8.183 51.659h-14.207l-8.722-51.659v51.659h-15.197v-71.621h24.099l6.654 37.361 6.609-37.361h24.323v111.714zm-127.731-91.123h-16.051l-.09-4.316c-.03-.809-.375-1.528-1.034-2.158-.659-.629-1.394-.944-2.203-.944-1.049 0-1.941.322-2.675.967-.735.644-1.102 1.476-1.102 2.495 0 2.038 1.484 4.256 4.451 6.654l9.577 7.733c1.558 1.259 2.915 2.54 4.069 3.844s2.068 2.593 2.742 3.867c.675 1.274 1.222 2.428 1.641 3.462.42 1.034.712 2.158.877 3.372s.262 2.128.292 2.742c.03.615.045 1.416.045 2.406 0 2.517-.165 4.803-.494 6.856-.33 2.053-.915 4.031-1.754 5.935-.839 1.903-1.941 3.492-3.304 4.765-1.364 1.274-3.133 2.286-5.306 3.035-2.173.75-4.698 1.124-7.575 1.124-7.344 0-12.582-1.678-15.714-5.035s-4.698-8.543-4.698-15.556v-7.014h15.646v6.429c0 4.616 1.259 6.924 3.777 6.924 1.168 0 2.09-.45 2.765-1.349.674-.899 1.011-2.083 1.011-3.552 0-1.918-.262-3.537-.787-4.855-.524-1.319-1.318-2.571-2.383-3.755-1.064-1.183-2.81-2.825-5.237-4.923l-6.699-5.799c-5.396-4.646-8.093-9.892-8.093-15.736 0-6.355 1.626-11.083 4.878-14.185 3.252-3.103 7.726-4.654 13.421-4.654h2.787c1.469 0 3.357.337 5.665 1.012 2.308.674 4.361 1.798 6.16 3.372 1.798 1.573 3.147 3.762 4.046 6.564.899 2.803 1.349 6.227 1.349 10.273zm-81.378 0h-16.051l-.09-4.316c-.03-.809-.374-1.528-1.034-2.158-.659-.629-1.393-.944-2.203-.944-1.049 0-1.94.322-2.675.967-.734.644-1.101 1.476-1.101 2.495 0 2.038 1.483 4.256 4.451 6.654l9.576 7.733c1.559 1.259 2.915 2.54 4.069 3.844s2.068 2.593 2.743 3.867c.674 1.274 1.221 2.428 1.641 3.462.419 1.034.712 2.158.876 3.372.165 1.214.263 2.128.293 2.742.03.615.045 1.416.045 2.406 0 2.517-.165 4.803-.495 6.856s-.914 4.031-1.753 5.935c-.84 1.903-1.941 3.492-3.305 4.765-1.364 1.274-3.132 2.286-5.305 3.035-2.173.75-4.699 1.124-7.576 1.124-7.343 0-12.581-1.678-15.713-5.035-3.133-3.357-4.699-8.543-4.699-15.556v-7.014h15.646v6.429c0 4.616 1.259 6.924 3.777 6.924 1.169 0 2.091-.45 2.765-1.349s1.012-2.083 1.012-3.552c0-1.918-.263-3.537-.787-4.855-.525-1.319-1.319-2.571-2.383-3.755-1.064-1.183-2.81-2.825-5.238-4.923l-6.699-5.799c-5.395-4.646-8.093-9.892-8.093-15.736 0-6.355 1.626-11.083 4.878-14.185 3.252-3.103 7.726-4.654 13.421-4.654h2.787c1.469 0 3.357.337 5.665 1.012 2.308.674 4.362 1.798 6.16 3.372 1.798 1.573 3.147 3.762 4.046 6.564.9 2.803 1.349 6.227 1.349 10.273zm155.697-6.699h-15.557v13.983h14.927v13.443h-14.927v16.32h16.591v13.983h-32.686v-71.621h31.652zm-36.508-.09h-9.397v57.819h-15.825v-57.819h-9.397v-13.802h34.619zm-90.1 57.819h-14.926v-23.559l-12.634-48.062h15.691l4.406 24.278 4.406-24.278h15.646l-12.589 48.062z" fill="#0d73b9"/><path d="m30.881 99.636h487.477v31.354h-487.477z" fill="#0d73b9"/><g fill="#fff" fill-rule="nonzero"><path d="m180.046 129.096c-2.551 0-4.371-.464-5.459-1.391-1.088-.928-1.632-2.36-1.632-4.297v-1.937h5.435v1.776c0 1.274.438 1.912 1.312 1.912.407 0 .727-.124.961-.373.234-.248.351-.575.351-.981 0-.529-.091-.977-.273-1.341s-.458-.71-.828-1.037c-.369-.327-.976-.78-1.819-1.36l-2.328-1.602c-1.874-1.283-2.811-2.732-2.811-4.346 0-1.755.565-3.061 1.694-3.918 1.13-.857 2.684-1.285 4.663-1.285h.968c.511 0 1.167.093 1.968.279.802.186 1.516.497 2.14.931.625.435 1.094 1.039 1.406 1.814.313.774.469 1.72.469 2.837h-5.577l-.031-1.192c-.01-.224-.13-.422-.359-.596s-.484-.261-.765-.261c-.365 0-.675.089-.93.267s-.382.408-.382.689c0 .563.515 1.176 1.546 1.838l3.327 2.136c.541.348 1.013.702 1.413 1.062.401.36.719.716.953 1.068.235.352.425.671.57.956.146.286.248.596.305.932.057.335.091.587.102.757.01.17.015.391.015.665 0 .695-.057 1.326-.172 1.893-.114.567-.317 1.114-.609 1.64-.291.525-.674.964-1.148 1.316s-1.088.631-1.843.838-1.632.311-2.632.311z"/><path d="m191.934 128.872v-19.782h7.263c.958 0 1.796.099 2.515.298.718.198 1.353.521 1.905.968s.971 1.066 1.258 1.857c.286.79.429 1.749.429 2.875 0 .968-.086 1.798-.257 2.49-.172.691-.466 1.306-.883 1.844-.416.538-1.007.941-1.773 1.21-.765.27-1.705.404-2.819.404h-2.234v7.836zm5.404-16.181v4.781h.313c.291 0 .512-.006.663-.019.151-.012.328-.041.532-.087.203-.045.354-.12.453-.223.098-.104.2-.244.304-.422s.175-.408.211-.69c.036-.281.055-.62.055-1.018 0-.869-.144-1.474-.43-1.813s-.784-.509-1.492-.509z"/><path d="m214.27 107.363v-2.769l7.42-2.707v4.309zm-3.795 16.169v-9.425c0-1.648.559-2.925 1.679-3.832 1.119-.906 2.804-1.372 5.053-1.397 2.312.025 4.027.491 5.146 1.397 1.12.907 1.68 2.184 1.68 3.832v9.425c0 .803-.128 1.534-.383 2.192s-.643 1.244-1.164 1.757c-.52.514-1.226.911-2.116 1.192-.891.282-1.914.41-3.07.385-1.218.025-2.272-.103-3.163-.385-.89-.281-1.595-.678-2.116-1.192-.521-.513-.909-1.099-1.164-1.757s-.382-1.389-.382-2.192zm6.779 1.652c.197 0 .372-.031.523-.093s.271-.158.359-.286c.089-.128.159-.25.211-.366s.089-.271.109-.466c.021-.195.034-.344.039-.447.006-.104.008-.246.008-.428 0-.042 0-.075 0-.1v-7.948c0-.049.003-.149.008-.298s.005-.26 0-.335c-.005-.074-.01-.184-.016-.329-.005-.145-.02-.257-.046-.335-.026-.079-.058-.178-.094-.298-.037-.12-.086-.212-.149-.274-.062-.062-.135-.128-.218-.198-.084-.071-.188-.12-.313-.149s-.265-.044-.421-.044c-.219 0-.409.029-.57.087-.162.058-.289.151-.383.28-.094.128-.172.244-.234.347-.063.104-.105.257-.125.46-.021.203-.032.347-.032.434v8.55c0 .183.003.328.008.435.005.108.018.265.039.472s.06.375.117.503c.058.128.133.263.227.404.094.14.221.246.383.316.161.071.351.106.57.106z"/><path d="m230.001 128.872v-19.782h5.498v15.92h5.655v3.862zm-1.093-6.321v-2.881l10.73-2.881v2.881z"/><path d="m253.635 109.09h5.529l-3.077 9.053 3.718 10.729h-5.702l-2.999-9.587v9.587h-5.467v-19.782h5.436v7.91z"/><path d="m275.332 109.09 2.749 19.782h-5.311l-.39-2.98h-2.78l-.344 2.98h-5.342l2.812-19.782zm-4.108 3.713h-.5l-.734 9.487h1.968z"/><path d="m293.438 128.872v-3.763l6.591-12.182h-5.982v-3.837h12.09v3.688l-6.717 12.282h6.451v3.812z"/><path d="m322.274 123.532v-9.425c0-1.648.56-2.925 1.679-3.832 1.12-.906 2.804-1.372 5.053-1.397 2.312.025 4.027.491 5.147 1.397 1.119.907 1.679 2.184 1.679 3.832v9.425c0 .803-.128 1.534-.383 2.192s-.643 1.244-1.163 1.757c-.521.514-1.226.911-2.117 1.192-.89.282-1.913.41-3.069.385-1.218.025-2.273-.103-3.163-.385-.89-.281-1.596-.678-2.117-1.192-.52-.513-.908-1.099-1.163-1.757s-.383-1.389-.383-2.192zm6.779 1.652c.198 0 .372-.031.523-.093s.271-.158.36-.286c.088-.128.158-.25.21-.366s.089-.271.11-.466.034-.344.039-.447c.005-.104.008-.246.008-.428 0-.042 0-.075 0-.1v-7.948c0-.049.002-.149.007-.298.006-.149.006-.26 0-.335-.005-.074-.01-.184-.015-.329s-.021-.257-.047-.335c-.026-.079-.057-.178-.094-.298-.036-.12-.086-.212-.148-.274-.063-.062-.136-.128-.219-.198-.083-.071-.187-.12-.312-.149s-.266-.044-.422-.044c-.219 0-.409.029-.57.087s-.289.151-.383.28c-.093.128-.172.244-.234.347-.063.104-.104.257-.125.46s-.031.347-.031.434v8.55c0 .183.002.328.008.435.005.108.018.265.039.472.02.207.059.375.117.503.057.128.133.263.226.404.094.14.222.246.383.316.161.071.351.106.57.106z"/><path d="m340.784 125.159h5.592v3.701h-5.592z"/><path d="m352.313 123.532v-9.425c0-1.648.56-2.925 1.679-3.832 1.12-.906 2.804-1.372 5.053-1.397 2.312.025 4.028.491 5.147 1.397 1.119.907 1.679 2.184 1.679 3.832v9.425c0 .803-.127 1.534-.383 2.192-.255.658-.643 1.244-1.163 1.757-.521.514-1.226.911-2.117 1.192-.89.282-1.913.41-3.069.385-1.218.025-2.273-.103-3.163-.385-.89-.281-1.596-.678-2.116-1.192-.521-.513-.909-1.099-1.164-1.757s-.383-1.389-.383-2.192zm6.779 1.652c.198 0 .372-.031.523-.093s.271-.158.36-.286c.088-.128.159-.25.211-.366s.088-.271.109-.466.034-.344.039-.447c.005-.104.008-.246.008-.428 0-.042 0-.075 0-.1v-7.948c0-.049.002-.149.008-.298.005-.149.005-.26 0-.335-.006-.074-.011-.184-.016-.329s-.021-.257-.047-.335c-.026-.079-.057-.178-.094-.298-.036-.12-.086-.212-.148-.274s-.135-.128-.219-.198c-.083-.071-.187-.12-.312-.149s-.266-.044-.422-.044c-.218 0-.409.029-.57.087s-.289.151-.383.28c-.093.128-.171.244-.234.347-.062.104-.104.257-.125.46s-.031.347-.031.434v8.55c0 .183.002.328.008.435.005.108.018.265.039.472s.06.375.117.503.133.263.226.404c.094.14.222.246.383.316.161.071.352.106.57.106z"/><path d="m370.824 125.159h5.592v3.701h-5.592z"/></g></svg>