<?xml version="1.0" encoding="UTF-8" standalone="no"?><!DOCTYPE svg PUBLIC "-//W3C//DTD SVG 1.1//EN" "http://www.w3.org/Graphics/SVG/1.1/DTD/svg11.dtd"><svg width="100%" height="100%" viewBox="0 0 550 150" version="1.1" xmlns="http://www.w3.org/2000/svg" xmlns:xlink="http://www.w3.org/1999/xlink" xml:space="preserve" xmlns:serif="http://www.serif.com/" style="fill-rule:evenodd;clip-rule:evenodd;stroke-linejoin:round;stroke-miterlimit:1.41421;"><path d="M6.676,90.438l0,-71.161l24.099,0l6.654,37.361l6.609,-37.361l24.323,0l0,71.621l-15.376,0l0,-51.659l-8.183,51.659l-14.207,0l-8.722,-51.659l0,91.752l-15.197,0l0,-40.553Zm148.638,-50.57l-16.051,0l-0.09,-4.316c-0.03,-0.809 -0.374,-1.528 -1.034,-2.158c-0.659,-0.629 -1.394,-0.944 -2.203,-0.944c-1.049,0 -1.941,0.322 -2.675,0.967c-0.734,0.644 -1.101,1.476 -1.101,2.495c0,2.038 1.483,4.256 4.451,6.654l9.576,7.733c1.559,1.259 2.915,2.54 4.069,3.844c1.154,1.304 2.068,2.593 2.743,3.867c0.674,1.274 1.221,2.428 1.641,3.462c0.419,1.034 0.711,2.158 0.876,3.372c0.165,1.214 0.263,2.128 0.293,2.742c0.03,0.615 0.044,1.416 0.044,2.406c0,2.517 -0.164,4.803 -0.494,6.856c-0.33,2.053 -0.914,4.031 -1.754,5.935c-0.839,1.903 -1.94,3.492 -3.304,4.765c-1.364,1.274 -3.132,2.286 -5.305,3.035c-2.173,0.75 -4.699,1.124 -7.576,1.124c-7.344,0 -12.581,-1.678 -15.714,-5.035c-3.132,-3.357 -4.698,-8.543 -4.698,-15.556l0,-7.014l15.646,0l0,6.429c0,4.616 1.259,6.924 3.777,6.924c1.169,0 2.09,-0.45 2.765,-1.349c0.674,-0.899 1.011,-2.083 1.011,-3.552c0,-1.918 -0.262,-3.537 -0.786,-4.855c-0.525,-1.319 -1.319,-2.571 -2.383,-3.755c-1.064,-1.183 -2.81,-2.825 -5.238,-4.923l-6.699,-5.799c-5.395,-4.646 -8.093,-9.892 -8.093,-15.736c0,-6.355 1.626,-11.083 4.878,-14.185c3.252,-3.103 7.726,-4.654 13.421,-4.654l2.787,0c1.469,0 3.357,0.337 5.665,1.012c2.308,0.674 4.361,1.798 6.16,3.372c1.798,1.573 3.147,3.762 4.046,6.564c0.899,2.803 1.349,6.227 1.349,10.273Zm74.319,-6.699l-15.556,0l0,13.983l14.926,0l0,13.443l-14.926,0l0,16.32l16.59,0l0,13.983l-32.686,0l0,-71.621l31.652,0l0,13.892Zm-36.508,-0.09l-9.396,0l0,57.819l-15.826,0l0,-57.819l-9.397,0l0,-13.802l34.619,0l0,13.802Zm59.617,57.819l-16.005,0l0,-71.621l24.278,0c2.488,0 4.616,0.337 6.384,1.011c1.769,0.675 3.162,1.559 4.182,2.653c1.019,1.094 1.82,2.548 2.405,4.361c0.584,1.813 0.967,3.627 1.146,5.44c0.18,1.814 0.27,4.009 0.27,6.587c0,1.349 -0.022,2.45 -0.067,3.304c-0.045,0.855 -0.21,1.934 -0.495,3.238c-0.285,1.303 -0.682,2.39 -1.191,3.259c-0.51,0.869 -1.282,1.724 -2.316,2.563c-1.034,0.839 -2.285,1.484 -3.754,1.933c1.469,0.27 2.683,0.772 3.642,1.506c0.959,0.735 1.648,1.641 2.068,2.72c0.42,1.079 0.704,2.076 0.854,2.99c0.15,0.914 0.225,1.941 0.225,3.08c0,11.839 -0.06,20.831 -0.18,26.976l-15.466,0l0,-27.92c0,-1.109 -0.112,-1.993 -0.337,-2.653c-0.225,-0.659 -0.645,-1.131 -1.259,-1.416c-0.615,-0.285 -1.207,-0.457 -1.776,-0.517c-0.57,-0.06 -1.439,-0.09 -2.608,-0.09l0,32.596Zm-138.836,0l-15.287,0l-1.124,-10.79l-8.002,0l-0.99,10.79l-15.376,0l8.093,-71.621l24.773,0l7.913,71.621Zm-19.738,-58.178l-1.438,0l-2.113,34.349l5.664,0l-2.113,-34.349Zm159.518,-0.18l-0.854,0l0,13.353l3.957,0c2.098,0 3.147,-2.188 3.147,-6.564c0,-2.908 -0.412,-4.766 -1.237,-5.575c-0.824,-0.809 -2.495,-1.214 -5.013,-1.214Z" style="fill:#e20619;"/><path d="M527.223,130.991l0,-40.093l0,-51.659l-8.183,51.659l-14.207,0l-8.722,-51.659l0,51.659l-15.197,0l0,-71.621l24.099,0l6.654,37.361l6.609,-37.361l24.323,0l0,111.714l-15.376,0Zm-127.731,-91.123l-16.051,0l-0.09,-4.316c-0.03,-0.809 -0.375,-1.528 -1.034,-2.158c-0.659,-0.629 -1.394,-0.944 -2.203,-0.944c-1.049,0 -1.941,0.322 -2.675,0.967c-0.735,0.644 -1.102,1.476 -1.102,2.495c0,2.038 1.484,4.256 4.451,6.654l9.577,7.733c1.558,1.259 2.915,2.54 4.069,3.844c1.154,1.304 2.068,2.593 2.742,3.867c0.675,1.274 1.222,2.428 1.641,3.462c0.42,1.034 0.712,2.158 0.877,3.372c0.165,1.214 0.262,2.128 0.292,2.742c0.03,0.615 0.045,1.416 0.045,2.406c0,2.517 -0.165,4.803 -0.494,6.856c-0.33,2.053 -0.915,4.031 -1.754,5.935c-0.839,1.903 -1.941,3.492 -3.304,4.765c-1.364,1.274 -3.133,2.286 -5.306,3.035c-2.173,0.75 -4.698,1.124 -7.575,1.124c-7.344,0 -12.582,-1.678 -15.714,-5.035c-3.132,-3.357 -4.698,-8.543 -4.698,-15.556l0,-7.014l15.646,0l0,6.429c0,4.616 1.259,6.924 3.777,6.924c1.168,0 2.09,-0.45 2.765,-1.349c0.674,-0.899 1.011,-2.083 1.011,-3.552c0,-1.918 -0.262,-3.537 -0.787,-4.855c-0.524,-1.319 -1.318,-2.571 -2.383,-3.755c-1.064,-1.183 -2.81,-2.825 -5.237,-4.923l-6.699,-5.799c-5.396,-4.646 -8.093,-9.892 -8.093,-15.736c0,-6.355 1.626,-11.083 4.878,-14.185c3.252,-3.103 7.726,-4.654 13.421,-4.654l2.787,0c1.469,0 3.357,0.337 5.665,1.012c2.308,0.674 4.361,1.798 6.16,3.372c1.798,1.573 3.147,3.762 4.046,6.564c0.899,2.803 1.349,6.227 1.349,10.273Zm-81.378,0l-16.051,0l-0.09,-4.316c-0.03,-0.809 -0.374,-1.528 -1.034,-2.158c-0.659,-0.629 -1.393,-0.944 -2.203,-0.944c-1.049,0 -1.94,0.322 -2.675,0.967c-0.734,0.644 -1.101,1.476 -1.101,2.495c0,2.038 1.483,4.256 4.451,6.654l9.576,7.733c1.559,1.259 2.915,2.54 4.069,3.844c1.154,1.304 2.068,2.593 2.743,3.867c0.674,1.274 1.221,2.428 1.641,3.462c0.419,1.034 0.712,2.158 0.876,3.372c0.165,1.214 0.263,2.128 0.293,2.742c0.03,0.615 0.045,1.416 0.045,2.406c0,2.517 -0.165,4.803 -0.495,6.856c-0.33,2.053 -0.914,4.031 -1.753,5.935c-0.84,1.903 -1.941,3.492 -3.305,4.765c-1.364,1.274 -3.132,2.286 -5.305,3.035c-2.173,0.75 -4.699,1.124 -7.576,1.124c-7.343,0 -12.581,-1.678 -15.713,-5.035c-3.133,-3.357 -4.699,-8.543 -4.699,-15.556l0,-7.014l15.646,0l0,6.429c0,4.616 1.259,6.924 3.777,6.924c1.169,0 2.091,-0.45 2.765,-1.349c0.674,-0.899 1.012,-2.083 1.012,-3.552c0,-1.918 -0.263,-3.537 -0.787,-4.855c-0.525,-1.319 -1.319,-2.571 -2.383,-3.755c-1.064,-1.183 -2.81,-2.825 -5.238,-4.923l-6.699,-5.799c-5.395,-4.646 -8.093,-9.892 -8.093,-15.736c0,-6.355 1.626,-11.083 4.878,-14.185c3.252,-3.103 7.726,-4.654 13.421,-4.654l2.787,0c1.469,0 3.357,0.337 5.665,1.012c2.308,0.674 4.362,1.798 6.16,3.372c1.798,1.573 3.147,3.762 4.046,6.564c0.9,2.803 1.349,6.227 1.349,10.273Zm155.697,-6.699l-15.557,0l0,13.983l14.927,0l0,13.443l-14.927,0l0,16.32l16.591,0l0,13.983l-32.686,0l0,-71.621l31.652,0l0,13.892Zm-36.508,-0.09l-9.397,0l0,57.819l-15.825,0l0,-57.819l-9.397,0l0,-13.802l34.619,0l0,13.802Zm-90.1,57.819l-14.926,0l0,-23.559l-12.634,-48.062l15.691,0l4.406,24.278l4.406,-24.278l15.646,0l-12.589,48.062l0,23.559Z" style="fill:#0d73b9;"/><rect x="30.881" y="99.636" width="487.477" height="31.354" style="fill:#0d73b9;"/><g><text x="172.205px" y="127.872px" style="font-family:'Anton';font-size:25.433px;fill:#fff;">S</text><text x="190.575px" y="127.872px" style="font-family:'Anton';font-size:25.433px;fill:#fff;">P</text><g><text x="209.444px" y="127.872px" style="font-family:'Anton';font-size:25.433px;fill:#fff;">Ó</text><text x="228.58px" y="127.872px" style="font-family:'Anton';font-size:25.433px;fill:#fff;">Ł<tspan x="241.279px 256.617px 271.409px 278.907px 292.746px 300.243px 315.863px 323.282px 338.902px " y="127.872px 127.872px 127.872px 127.872px 127.872px 127.872px 127.872px 127.872px 127.872px ">KA Z O.O.</tspan></text></g></g></svg>